<svg xmlns="http://www.w3.org/2000/svg" width="46.167" height="40.441" viewBox="0 0 46.167 40.441">
  <g id="Grupo_11735" data-name="Grupo 11735" transform="translate(-443.618 -4432.638)">
    <path id="Trazado_32815" data-name="Trazado 32815" d="M1611.227,2083.857a.663.663,0,0,1-.663-.663,159.822,159.822,0,0,0-1-17.625,9.04,9.04,0,0,0-3.406-6.262,7.308,7.308,0,0,0-2.74-1.311.663.663,0,0,1,.233-1.306,8.494,8.494,0,0,1,3.245,1.513,10.335,10.335,0,0,1,3.981,7.182,161.235,161.235,0,0,1,1.01,17.809A.663.663,0,0,1,1611.227,2083.857Z" transform="translate(-1146.492 2385.386)" fill="#0e2571"/>
    <path id="Trazado_32816" data-name="Trazado 32816" d="M1614.742,2083.857a.663.663,0,0,1-.663-.663,161.132,161.132,0,0,1,1.009-17.809,10.338,10.338,0,0,1,3.981-7.182,8.5,8.5,0,0,1,3.246-1.513.663.663,0,0,1,.232,1.306,7.3,7.3,0,0,0-2.74,1.311,9.047,9.047,0,0,0-3.406,6.262,159.74,159.74,0,0,0-1,17.625A.663.663,0,0,1,1614.742,2083.857Z" transform="translate(-1146.492 2385.386)" fill="#0e2571"/>
    <path id="Trazado_32817" data-name="Trazado 32817" d="M1590.772,2083.47a.663.663,0,0,1-.081-1.321l17.057-2.131a.663.663,0,1,1,.164,1.316l-17.057,2.131A.591.591,0,0,1,1590.772,2083.47Z" transform="translate(-1146.492 2385.386)" fill="#0e2571"/>
    <path id="Trazado_32818" data-name="Trazado 32818" d="M1635.174,2083.47a.6.6,0,0,1-.083,0l-16.954-2.131a.663.663,0,1,1,.165-1.315l16.954,2.13a.663.663,0,0,1-.082,1.321Z" transform="translate(-1146.492 2385.386)" fill="#0e2571"/>
    <path id="Trazado_32819" data-name="Trazado 32819" d="M1606.317,2085.806a.663.663,0,0,1-.32-1.244l2.374-1.306a5.876,5.876,0,0,1,2.823-.725h4.171a5.852,5.852,0,0,1,3.009.832l2.024,1.211a.663.663,0,1,1-.682,1.138l-2.023-1.212a4.533,4.533,0,0,0-2.328-.643h-4.171a4.545,4.545,0,0,0-2.184.561l-2.374,1.306A.654.654,0,0,1,1606.317,2085.806Z" transform="translate(-1146.492 2385.386)" fill="#0e2571"/>
    <path id="Trazado_32820" data-name="Trazado 32820" d="M1591.212,2057.622a.663.663,0,0,1-.2-1.3c.209-.064.423-.125.636-.181a.663.663,0,1,1,.337,1.282c-.2.051-.391.107-.581.166A.675.675,0,0,1,1591.212,2057.622Z" transform="translate(-1146.492 2385.386)" fill="#0e2571"/>
    <path id="Trazado_32821" data-name="Trazado 32821" d="M1601.006,2057.437a.657.657,0,0,1-.174-.024h0a19.9,19.9,0,0,0-6.337-.429.663.663,0,1,1-.129-1.319,20.836,20.836,0,0,1,6.813.468.664.664,0,0,1-.173,1.3Z" transform="translate(-1146.492 2385.386)" fill="#0e2571"/>
    <path id="Trazado_32822" data-name="Trazado 32822" d="M1610.79,2058.681a.662.662,0,0,1-.591-.363c-.066-.129-.134-.257-.2-.381a.663.663,0,1,1,1.16-.642c.076.137.152.279.224.422a.664.664,0,0,1-.59.964Z" transform="translate(-1146.492 2385.386)" fill="#0e2571"/>
    <path id="Trazado_32823" data-name="Trazado 32823" d="M1608.843,2055.871a.659.659,0,0,1-.489-.215,13.943,13.943,0,0,0-5.985-3.739.663.663,0,0,1,.418-1.258,15.255,15.255,0,0,1,6.544,4.1.663.663,0,0,1-.488,1.111Z" transform="translate(-1146.492 2385.386)" fill="#0e2571"/>
    <path id="Trazado_32824" data-name="Trazado 32824" d="M1634.57,2057.622a.664.664,0,0,1-.195-.03c-.2-.063-.411-.122-.618-.175a.663.663,0,1,1,.334-1.284c.225.059.452.123.674.192a.663.663,0,0,1-.2,1.3Z" transform="translate(-1146.492 2385.386)" fill="#0e2571"/>
    <path id="Trazado_32825" data-name="Trazado 32825" d="M1624.777,2057.436a.663.663,0,0,1-.174-1.3,20.787,20.787,0,0,1,6.136-.522.663.663,0,1,1-.082,1.323,19.835,19.835,0,0,0-5.707.479A.653.653,0,0,1,1624.777,2057.436Z" transform="translate(-1146.492 2385.386)" fill="#0e2571"/>
    <path id="Trazado_32826" data-name="Trazado 32826" d="M1615.181,2058.681a.664.664,0,0,1-.59-.964,13.267,13.267,0,0,1,2.763-3.678.663.663,0,1,1,.907.967,11.955,11.955,0,0,0-2.488,3.312A.664.664,0,0,1,1615.181,2058.681Z" transform="translate(-1146.492 2385.386)" fill="#0e2571"/>
    <path id="Trazado_32827" data-name="Trazado 32827" d="M1612.9,2054.9a.663.663,0,0,1-.663-.663v-6.324a.663.663,0,1,1,1.326,0v6.324A.663.663,0,0,1,1612.9,2054.9Z" transform="translate(-1146.492 2385.386)" fill="#0e2571"/>
    <path id="Trazado_32828" data-name="Trazado 32828" d="M1612.9,2062.129a.663.663,0,0,1-.663-.663V2059.1a.663.663,0,1,1,1.326,0v2.361A.662.662,0,0,1,1612.9,2062.129Z" transform="translate(-1146.492 2385.386)" fill="#0e2571"/>
    <path id="Trazado_32829" data-name="Trazado 32829" d="M1612.9,2065.617a.662.662,0,0,1-.663-.663v-1.032a.663.663,0,1,1,1.326,0v1.032A.662.662,0,0,1,1612.9,2065.617Z" transform="translate(-1146.492 2385.386)" fill="#0e2571"/>
    <path id="Trazado_32830" data-name="Trazado 32830" d="M1635.615,2087.693a.645.645,0,0,1-.138-.014l-7.314-1.548a3.242,3.242,0,0,0-3.308,1.285.663.663,0,0,1-1.079-.772,4.569,4.569,0,0,1,4.661-1.81l7.314,1.548a.663.663,0,0,1-.136,1.311Z" transform="translate(-1146.492 2385.386)" fill="#0e2571"/>
  </g>
</svg>
