<svg xmlns="http://www.w3.org/2000/svg" width="41.834" height="43.847" viewBox="0 0 41.834 43.847">
  <g id="Grupo_11734" data-name="Grupo 11734" transform="translate(-450.761 -4194.431)">
    <path id="Trazado_32791" data-name="Trazado 32791" d="M1624.972,2023.892a.689.689,0,0,1-.127-.012c-.031-.006-3.1-.6-6.458-1.188-.386-.067-1.289-.225-1.408-.958-.127-.783.736-1.248,1.829-1.838.254-.138.61-.329.887-.5a54.246,54.246,0,0,0-7.576-.25c-5.715.021-9.565-.023-10.955-.805-.862-.485-.987-1.059-.94-1.455.086-.717.8-1.34,2.232-1.958a16.38,16.38,0,0,1,1.821-.649,3,3,0,0,0,1.8-1.165.663.663,0,1,1,1.1.734,4.31,4.31,0,0,1-2.551,1.708,7.32,7.32,0,0,0-3.069,1.453,1.147,1.147,0,0,0,.249.176c1.189.669,6.241.65,10.3.635,3.636-.013,6.777-.025,8.126.344.261.071,1.056.288,1.137.993.093.81-.805,1.295-1.941,1.908-.183.1-.422.228-.64.355,3.3.578,6.27,1.154,6.3,1.16a.663.663,0,0,1-.125,1.314Z" transform="translate(-1146.492 2214.386)" fill="#0e2571"/>
    <path id="Trazado_32792" data-name="Trazado 32792" d="M1607.285,2009.24a.663.663,0,0,1-.663-.663v-21.53a4.531,4.531,0,0,0-3.784-4.425l-2.182-.2a.663.663,0,1,1,.123-1.32l2.214.206c.021,0,.041.005.062.009a5.841,5.841,0,0,1,4.893,5.733v21.53A.663.663,0,0,1,1607.285,2009.24Z" transform="translate(-1146.492 2214.386)" fill="#0e2571"/>
    <path id="Trazado_32793" data-name="Trazado 32793" d="M1624.079,2008.219a.663.663,0,0,1-.663-.663V1986.19a4.016,4.016,0,0,0-3.359-3.971l-3.882-.654a14.05,14.05,0,0,0-2.325-.194h-6.291a.663.663,0,0,1,0-1.326h6.291a15.369,15.369,0,0,1,2.545.213l3.882.653a5.338,5.338,0,0,1,4.465,5.279v21.366A.663.663,0,0,1,1624.079,2008.219Z" transform="translate(-1146.492 2214.386)" fill="#0e2571"/>
    <path id="Trazado_32794" data-name="Trazado 32794" d="M1638.424,2020.376a.66.66,0,0,1-.222-.038c-.03-.011-2.993-1.063-5.351-1.8-1.444-.451-2.115-.939-2.244-1.631-.154-.826.588-1.415,1.184-1.889a6.551,6.551,0,0,0,.532-.455,7.114,7.114,0,0,0-2-.59l-1.418-.279-.033-.007-.016,0h0a.661.661,0,1,1,.254-1.3v0l.043.009.042.007.1.019.04.009,1.246.245c2.073.407,2.951.854,3.131,1.594.188.774-.491,1.314-1.09,1.79a4.189,4.189,0,0,0-.678.618,3.488,3.488,0,0,0,1.308.6c2.383.745,5.37,1.806,5.4,1.816a.663.663,0,0,1-.222,1.288Z" transform="translate(-1146.492 2214.386)" fill="#0e2571"/>
    <path id="Trazado_32795" data-name="Trazado 32795" d="M1631.344,1996.742a.663.663,0,0,1-.663-.663v-.432a.663.663,0,0,1,1.326,0v.432A.662.662,0,0,1,1631.344,1996.742Z" transform="translate(-1146.492 2214.386)" fill="#0e2571"/>
    <path id="Trazado_32796" data-name="Trazado 32796" d="M1619.988,1995.195a.663.663,0,0,1-.663-.663v-6.224a.663.663,0,0,1,1.326,0v6.224A.663.663,0,0,1,1619.988,1995.195Z" transform="translate(-1146.492 2214.386)" fill="#0e2571"/>
    <path id="Trazado_32797" data-name="Trazado 32797" d="M1619.988,2009.716a.663.663,0,0,1-.663-.663v-2.379a.663.663,0,0,1,1.326,0v2.379A.663.663,0,0,1,1619.988,2009.716Z" transform="translate(-1146.492 2214.386)" fill="#0e2571"/>
    <path id="Trazado_32798" data-name="Trazado 32798" d="M1616.908,2007.374a.663.663,0,0,1-.663-.663v-12.066a.663.663,0,0,1,1.326,0v12.066A.663.663,0,0,1,1616.908,2007.374Z" transform="translate(-1146.492 2214.386)" fill="#0e2571"/>
    <path id="Trazado_32799" data-name="Trazado 32799" d="M1612.416,2001.781a.663.663,0,0,1-.663-.663V1998.6a.663.663,0,0,1,1.326,0v2.518A.663.663,0,0,1,1612.416,2001.781Z" transform="translate(-1146.492 2214.386)" fill="#0e2571"/>
    <path id="Trazado_32800" data-name="Trazado 32800" d="M1612.416,2010.03a.663.663,0,0,1-.663-.663v-4.54a.663.663,0,1,1,1.326,0v4.54A.663.663,0,0,1,1612.416,2010.03Z" transform="translate(-1146.492 2214.386)" fill="#0e2571"/>
    <path id="Trazado_32801" data-name="Trazado 32801" d="M1612.416,1997.324a.663.663,0,0,1-.663-.663v-1.127a.663.663,0,1,1,1.326,0v1.127A.663.663,0,0,1,1612.416,1997.324Z" transform="translate(-1146.492 2214.386)" fill="#0e2571"/>
    <path id="Trazado_32802" data-name="Trazado 32802" d="M1619.988,2004.584a.663.663,0,0,1-.663-.663v-.644a.663.663,0,0,1,1.326,0v.644A.663.663,0,0,1,1619.988,2004.584Z" transform="translate(-1146.492 2214.386)" fill="#0e2571"/>
    <path id="Trazado_32803" data-name="Trazado 32803" d="M1606.571,2011.533a.66.66,0,0,1-.515-.246l-2.433-3.007a.663.663,0,1,1,1.03-.834l2.433,3.007a.663.663,0,0,1-.515,1.08Z" transform="translate(-1146.492 2214.386)" fill="#0e2571"/>
    <path id="Trazado_32804" data-name="Trazado 32804" d="M1602.545,2006.558a.66.66,0,0,1-.515-.246l-.388-.48a.663.663,0,1,1,1.03-.834l.388.48a.663.663,0,0,1-.515,1.08Z" transform="translate(-1146.492 2214.386)" fill="#0e2571"/>
    <path id="Trazado_32805" data-name="Trazado 32805" d="M1604.407,2012.875a.664.664,0,0,1-.27-.058l-.249-.111a.663.663,0,0,1,.541-1.211l.249.111a.663.663,0,0,1-.271,1.269Z" transform="translate(-1146.492 2214.386)" fill="#0e2571"/>
    <path id="Trazado_32806" data-name="Trazado 32806" d="M1602.371,2011.965a.661.661,0,0,1-.27-.057l-1.836-.82a.663.663,0,0,1,.541-1.211l1.835.82a.663.663,0,0,1-.27,1.268Z" transform="translate(-1146.492 2214.386)" fill="#0e2571"/>
    <path id="Trazado_32807" data-name="Trazado 32807" d="M1598.449,2010.214a.668.668,0,0,1-.27-.058l-.533-.238a.663.663,0,0,1,.54-1.211l.534.238a.663.663,0,0,1-.271,1.269Z" transform="translate(-1146.492 2214.386)" fill="#0e2571"/>
    <path id="Trazado_32808" data-name="Trazado 32808" d="M1625.722,2010.1a.662.662,0,0,1-.515-1.08l2.433-3.006a.663.663,0,1,1,1.031.834l-2.433,3.006A.662.662,0,0,1,1625.722,2010.1Z" transform="translate(-1146.492 2214.386)" fill="#0e2571"/>
    <path id="Trazado_32809" data-name="Trazado 32809" d="M1629.748,2005.121a.663.663,0,0,1-.515-1.08l.388-.48a.663.663,0,0,1,1.031.834l-.388.48A.662.662,0,0,1,1629.748,2005.121Z" transform="translate(-1146.492 2214.386)" fill="#0e2571"/>
    <path id="Trazado_32810" data-name="Trazado 32810" d="M1627.886,2011.438a.663.663,0,0,1-.27-1.268l.249-.112a.663.663,0,0,1,.54,1.211l-.248.111A.668.668,0,0,1,1627.886,2011.438Z" transform="translate(-1146.492 2214.386)" fill="#0e2571"/>
    <path id="Trazado_32811" data-name="Trazado 32811" d="M1629.923,2010.528a.663.663,0,0,1-.271-1.268l1.835-.82a.663.663,0,1,1,.541,1.211l-1.835.82A.664.664,0,0,1,1629.923,2010.528Z" transform="translate(-1146.492 2214.386)" fill="#0e2571"/>
    <path id="Trazado_32812" data-name="Trazado 32812" d="M1633.844,2008.777a.663.663,0,0,1-.271-1.269l.534-.238a.663.663,0,1,1,.541,1.211l-.534.238A.662.662,0,0,1,1633.844,2008.777Z" transform="translate(-1146.492 2214.386)" fill="#0e2571"/>
    <path id="Trazado_32813" data-name="Trazado 32813" d="M1627.325,2017.194a.676.676,0,0,1-.09-.006.663.663,0,0,1-.568-.746c.015-.112.029-.217-.323-.394a10.18,10.18,0,0,0-1.916-.566c-.423-.1-.9-.213-1.4-.348a.663.663,0,1,1,.348-1.279c.473.128.921.234,1.355.337a10.707,10.707,0,0,1,2.206.672,1.629,1.629,0,0,1,1.041,1.755A.663.663,0,0,1,1627.325,2017.194Z" transform="translate(-1146.492 2214.386)" fill="#0e2571"/>
    <path id="Trazado_32814" data-name="Trazado 32814" d="M1621.187,2014.543a.658.658,0,0,1-.229-.041c-.173-.064-.335-.128-.481-.191a.663.663,0,1,1,.524-1.218c.124.054.263.109.414.164a.663.663,0,0,1-.228,1.286Z" transform="translate(-1146.492 2214.386)" fill="#0e2571"/>
  </g>
</svg>
