<svg xmlns="http://www.w3.org/2000/svg" width="84.6" height="84.6" viewBox="0 0 84.6 84.6">
  <g id="Grupo_11732" data-name="Grupo 11732" transform="translate(-922 -6006)">
    <g id="Trazado_25793" data-name="Trazado 25793" transform="translate(922 6006)" fill="#0f3384">
      <path d="M 42.29998779296875 83.0999755859375 C 36.79136276245117 83.0999755859375 31.44831657409668 82.02143859863281 26.41925811767578 79.89432525634766 C 21.56099891662598 77.83945465087891 17.19752883911133 74.89742279052734 13.45003509521484 71.14994049072266 C 9.702552795410156 67.40244293212891 6.760517120361328 63.03897476196289 4.705646514892578 58.18071746826172 C 2.578540802001953 53.15165710449219 1.499999523162842 47.80861282348633 1.499999523162842 42.29998779296875 C 1.499999523162842 36.79136276245117 2.578540802001953 31.44831657409668 4.705646514892578 26.41925811767578 C 6.760517120361328 21.56099891662598 9.702552795410156 17.19752883911133 13.45003509521484 13.45003509521484 C 17.19752883911133 9.702552795410156 21.56099891662598 6.760517120361328 26.41925811767578 4.705646514892578 C 31.44831657409668 2.578540802001953 36.79136276245117 1.499999523162842 42.29998779296875 1.499999523162842 C 47.80861282348633 1.499999523162842 53.15165710449219 2.578540802001953 58.18071746826172 4.705646514892578 C 63.03897476196289 6.760517120361328 67.40244293212891 9.702552795410156 71.14994049072266 13.45003509521484 C 74.89742279052734 17.19752883911133 77.83945465087891 21.56099891662598 79.89432525634766 26.41925811767578 C 82.02143859863281 31.44831657409668 83.0999755859375 36.79136276245117 83.0999755859375 42.29998779296875 C 83.0999755859375 47.80861282348633 82.02143859863281 53.15165710449219 79.89432525634766 58.18071746826172 C 77.83945465087891 63.03897476196289 74.89742279052734 67.40244293212891 71.14994049072266 71.14994049072266 C 67.40244293212891 74.89742279052734 63.03897476196289 77.83945465087891 58.18071746826172 79.89432525634766 C 53.15165710449219 82.02143859863281 47.80861282348633 83.0999755859375 42.29998779296875 83.0999755859375 Z" stroke="none"/>
      <path d="M 42.29998779296875 3 C 36.99320220947266 3 31.84674835205078 4.038665771484375 27.00357437133789 6.087158203125 C 22.32411956787109 8.066398620605469 18.12091064453125 10.90049743652344 14.51069641113281 14.51069641113281 C 10.90049743652344 18.12091064453125 8.066398620605469 22.32411956787109 6.087158203125 27.00357437133789 C 4.038665771484375 31.84674835205078 3 36.99320220947266 3 42.29998779296875 C 3 47.60677337646484 4.038665771484375 52.75322723388672 6.087158203125 57.59638977050781 C 8.066398620605469 62.27584075927734 10.90049743652344 66.47905731201172 14.51069641113281 70.08926391601563 C 18.12091064453125 73.69947814941406 22.32411956787109 76.53357696533203 27.00357437133789 78.5128173828125 C 31.84674835205078 80.56130981445313 36.99320220947266 81.5999755859375 42.29998779296875 81.5999755859375 C 47.60677337646484 81.5999755859375 52.75322723388672 80.56130981445313 57.59638977050781 78.5128173828125 C 62.27584075927734 76.53357696533203 66.47905731201172 73.69947814941406 70.08926391601563 70.08926391601563 C 73.69947814941406 66.47905731201172 76.53357696533203 62.27584075927734 78.5128173828125 57.59638977050781 C 80.56130981445313 52.75322723388672 81.5999755859375 47.60677337646484 81.5999755859375 42.29998779296875 C 81.5999755859375 36.99320220947266 80.56130981445313 31.84674835205078 78.5128173828125 27.00357437133789 C 76.53357696533203 22.32411956787109 73.69947814941406 18.12091064453125 70.08926391601563 14.51069641113281 C 66.47905731201172 10.90049743652344 62.27584075927734 8.066398620605469 57.59638977050781 6.087158203125 C 52.75322723388672 4.038665771484375 47.60677337646484 3 42.29998779296875 3 M 42.29998779296875 0 C 65.66161346435547 0 84.5999755859375 18.93834686279297 84.5999755859375 42.29998779296875 C 84.5999755859375 65.66161346435547 65.66161346435547 84.5999755859375 42.29998779296875 84.5999755859375 C 18.93834686279297 84.5999755859375 0 65.66161346435547 0 42.29998779296875 C 0 18.93834686279297 18.93834686279297 0 42.29998779296875 0 Z" stroke="none" fill="#fff"/>
    </g>
    <path id="Trazado_32758" data-name="Trazado 32758" d="M55.634,42.383,33.932,7.99a6.763,6.763,0,0,0-11.442,0L.921,42.383v.066A6.59,6.59,0,0,0,0,45.8a6.736,6.736,0,0,0,6.708,6.708H49.781A6.736,6.736,0,0,0,56.488,45.8,6.308,6.308,0,0,0,55.634,42.383Zm-5.787,6.182H6.708A2.779,2.779,0,0,1,3.946,45.8a2.993,2.993,0,0,1,.329-1.315L25.91,10.161a2.788,2.788,0,0,1,4.735,0L52.28,44.422a2.4,2.4,0,0,1,.329,1.381A2.779,2.779,0,0,1,49.847,48.565Z" transform="translate(935.552 6016.254)" fill="rgba(255,255,255,0.6)"/>
    <path id="Trazado_32759" data-name="Trazado 32759" d="M42.991,59.734a2.532,2.532,0,0,0-1.907.789,2.634,2.634,0,0,0-.789,1.907,2.329,2.329,0,0,0,.854,1.973,2.876,2.876,0,0,0,3.814,0,2.481,2.481,0,0,0,.789-1.973,2.634,2.634,0,0,0-.789-1.907A2.9,2.9,0,0,0,42.991,59.734Z" transform="translate(920.838 5996.207)" fill="rgba(255,255,255,0.6)"/>
    <path id="Trazado_32760" data-name="Trazado 32760" d="M43.085,25.033a2.684,2.684,0,0,0-2.1.855,3.322,3.322,0,0,0-.789,2.367c0,.723.066,1.972.131,3.617l.592,8.68a8.506,8.506,0,0,0,.526,2.5,1.466,1.466,0,0,0,1.381.854,1.37,1.37,0,0,0,1.381-.854,7.085,7.085,0,0,0,.526-2.433l.855-8.944c.066-.854.131-1.644.131-2.433a7.476,7.476,0,0,0-.526-3.091A2.065,2.065,0,0,0,43.085,25.033Z" transform="translate(920.876 6008.878)" fill="rgba(255,255,255,0.6)"/>
  </g>
</svg>
