<svg xmlns="http://www.w3.org/2000/svg" width="46.437" height="29.153" viewBox="0 0 46.437 29.153">
  <g id="Grupo_11733" data-name="Grupo 11733" transform="translate(-450.013 -3823.217)">
    <path id="Trazado_32842" data-name="Trazado 32842" d="M1607.719,1945.984a.711.711,0,0,1-.7-.608l-3.972-27.124h-3.158l-1.963,27.073a.71.71,0,1,1-1.417-.1l2.011-27.732a.711.711,0,0,1,.708-.659h4.433a.71.71,0,0,1,.7.608l4.061,27.731a.711.711,0,0,1-.6.806A.739.739,0,0,1,1607.719,1945.984Z" transform="translate(-1146.492 1906.386)" fill="#0e2571"/>
    <path id="Trazado_32843" data-name="Trazado 32843" d="M1612.59,1932.735h-3.758a.71.71,0,0,1-.71-.71v-4.313a.711.711,0,0,1,1.421,0v3.6h3.047a.711.711,0,0,1,0,1.421Z" transform="translate(-1146.492 1906.386)" fill="#0e2571"/>
    <path id="Trazado_32844" data-name="Trazado 32844" d="M1620.344,1945.984a.71.71,0,0,1-.71-.711c0-6.751-2.01-10.91-3.7-13.21-1.887-2.572-3.969-3.64-4.665-3.64a.711.711,0,0,1,0-1.421c1.349,0,3.778,1.45,5.811,4.221,1.811,2.471,3.971,6.914,3.971,14.05A.711.711,0,0,1,1620.344,1945.984Z" transform="translate(-1146.492 1906.386)" fill="#0e2571"/>
    <path id="Trazado_32845" data-name="Trazado 32845" d="M1615.58,1945.984h-.015a.71.71,0,0,1-.7-.725c.071-3.372-.237-8.124-2.1-11.61a6.737,6.737,0,0,0-2.1-2.581.71.71,0,0,1,.695-1.239c.212.119,5.182,3.051,4.924,15.46A.711.711,0,0,1,1615.58,1945.984Z" transform="translate(-1146.492 1906.386)" fill="#0e2571"/>
    <path id="Trazado_32846" data-name="Trazado 32846" d="M1623.533,1932.735h-3.567a.71.71,0,0,1-.711-.71v-4.313a.711.711,0,0,1,1.421,0v3.6h2.857a.711.711,0,0,1,0,1.421Z" transform="translate(-1146.492 1906.386)" fill="#0e2571"/>
    <path id="Trazado_32847" data-name="Trazado 32847" d="M1631.288,1945.984a.71.71,0,0,1-.71-.711c0-6.751-2.01-10.91-3.7-13.21-1.887-2.572-3.97-3.64-4.665-3.64a.711.711,0,1,1,0-1.421c1.349,0,3.778,1.45,5.81,4.221,1.812,2.471,3.971,6.914,3.971,14.05A.71.71,0,0,1,1631.288,1945.984Z" transform="translate(-1146.492 1906.386)" fill="#0e2571"/>
    <path id="Trazado_32848" data-name="Trazado 32848" d="M1626.523,1945.984h-.015a.71.71,0,0,1-.7-.725c.07-3.372-.237-8.124-2.1-11.61a6.749,6.749,0,0,0-2.1-2.581.71.71,0,1,1,.7-1.239c.212.119,5.182,3.051,4.923,15.46A.711.711,0,0,1,1626.523,1945.984Z" transform="translate(-1146.492 1906.386)" fill="#0e2571"/>
    <path id="Trazado_32849" data-name="Trazado 32849" d="M1634.477,1932.735h-3.568a.71.71,0,0,1-.71-.71v-4.313a.711.711,0,0,1,1.421,0v3.6h2.857a.711.711,0,0,1,0,1.421Z" transform="translate(-1146.492 1906.386)" fill="#0e2571"/>
    <path id="Trazado_32850" data-name="Trazado 32850" d="M1642.232,1945.984a.71.71,0,0,1-.71-.711c0-6.751-2.011-10.91-3.7-13.21-1.886-2.572-3.969-3.64-4.665-3.64a.711.711,0,0,1,0-1.421c1.35,0,3.779,1.45,5.811,4.221,1.812,2.471,3.971,6.914,3.971,14.05A.71.71,0,0,1,1642.232,1945.984Z" transform="translate(-1146.492 1906.386)" fill="#0e2571"/>
    <path id="Trazado_32851" data-name="Trazado 32851" d="M1637.467,1945.984h-.015a.709.709,0,0,1-.7-.725c.07-3.372-.238-8.124-2.1-11.61a6.749,6.749,0,0,0-2.1-2.581.71.71,0,1,1,.7-1.239c.211.119,5.182,3.051,4.923,15.46A.711.711,0,0,1,1637.467,1945.984Z" transform="translate(-1146.492 1906.386)" fill="#0e2571"/>
  </g>
</svg>
