<svg xmlns="http://www.w3.org/2000/svg" width="45.408" height="39.475" viewBox="0 0 45.408 39.475">
  <g id="Grupo_11732" data-name="Grupo 11732" transform="translate(-456.097 -3561.889)">
    <path id="Trazado_32831" data-name="Trazado 32831" d="M1618.449,1853.33h-13.536a.662.662,0,0,1-.663-.663v-4.231a7.16,7.16,0,0,1,5.715-6.993l24.062-4.892a2.389,2.389,0,0,1,1.359,4.561l-14.945,5.942a2.1,2.1,0,0,0-1.329,1.959v3.654A.663.663,0,0,1,1618.449,1853.33ZM1605.576,1852h12.21v-2.991a3.417,3.417,0,0,1,2.166-3.191l14.944-5.942a1.063,1.063,0,0,0-.6-2.03l-24.062,4.892a5.83,5.83,0,0,0-4.653,5.694Z" transform="translate(-1146.492 1725.386)" fill="#0e2571"/>
    <path id="Trazado_32832" data-name="Trazado 32832" d="M1605.06,1866.134h-.024a.663.663,0,0,1-.639-.686l.448-12.8a.663.663,0,1,1,1.325.047l-.448,12.8A.663.663,0,0,1,1605.06,1866.134Z" transform="translate(-1146.492 1725.386)" fill="#0e2571"/>
    <path id="Trazado_32833" data-name="Trazado 32833" d="M1617.849,1863.832a.663.663,0,0,1-.662-.634l-.448-10.5a.663.663,0,1,1,1.325-.057l.448,10.5a.664.664,0,0,1-.634.691Z" transform="translate(-1146.492 1725.386)" fill="#0e2571"/>
    <path id="Trazado_32834" data-name="Trazado 32834" d="M1603.253,1875.138l-.045,0a.662.662,0,0,1-.617-.7l.463-7.019v-.016a2.7,2.7,0,0,1,2.7-2.462h4.766a.663.663,0,1,1,0,1.326h-4.766a1.375,1.375,0,0,0-1.376,1.249l-.462,7.009A.664.664,0,0,1,1603.253,1875.138Z" transform="translate(-1146.492 1725.386)" fill="#0e2571"/>
    <path id="Trazado_32835" data-name="Trazado 32835" d="M1619.888,1875.138a.664.664,0,0,1-.662-.624l-.329-5.552a.663.663,0,0,1,1.324-.079l.329,5.552a.663.663,0,0,1-.622.7Z" transform="translate(-1146.492 1725.386)" fill="#0e2571"/>
    <path id="Trazado_32836" data-name="Trazado 32836" d="M1613.548,1866.26h-.278a.663.663,0,0,1,0-1.326h.278a.663.663,0,1,1,0,1.326Z" transform="translate(-1146.492 1725.386)" fill="#0e2571"/>
    <path id="Trazado_32837" data-name="Trazado 32837" d="M1615.812,1850.554a.628.628,0,0,1-.129-.014.611.611,0,0,1-.124-.038.7.7,0,0,1-.114-.06.632.632,0,0,1-.1-.083.678.678,0,0,1-.083-.1.627.627,0,0,1-.06-.114.6.6,0,0,1-.038-.125.626.626,0,0,1-.014-.128.663.663,0,0,1,.195-.469.583.583,0,0,1,.1-.083.7.7,0,0,1,.114-.061.689.689,0,0,1,.124-.038.658.658,0,0,1,.383.038.71.71,0,0,1,.115.061.7.7,0,0,1,.183.183.7.7,0,0,1,.06.115.593.593,0,0,1,.038.124.562.562,0,0,1,.013.13.556.556,0,0,1-.013.128.6.6,0,0,1-.038.125.7.7,0,0,1-.06.114.622.622,0,0,1-.083.1.67.67,0,0,1-.1.083.7.7,0,0,1-.115.06.593.593,0,0,1-.124.038A.63.63,0,0,1,1615.812,1850.554Z" transform="translate(-1146.492 1725.386)" fill="#0e2571"/>
    <path id="Trazado_32838" data-name="Trazado 32838" d="M1619.674,1870.839a.663.663,0,0,1-.338-1.234l20.348-12a.663.663,0,0,1,1,.572v1.6l5.988-.1v-4.272a1.32,1.32,0,0,0-1.319-1.319h-4.327a7.672,7.672,0,0,0-2.916.572l-20,8.427a.663.663,0,0,1-.515-1.222l20.009-8.43a9.006,9.006,0,0,1,3.424-.673h4.327a2.647,2.647,0,0,1,2.645,2.645v4.923a.663.663,0,0,1-.651.663l-7.314.126a.663.663,0,0,1-.674-.663v-1.117l-19.348,11.409A.665.665,0,0,1,1619.674,1870.839Z" transform="translate(-1146.492 1725.386)" fill="#0e2571"/>
    <path id="Trazado_32839" data-name="Trazado 32839" d="M1643.59,1875.978a4.362,4.362,0,0,1-4.357-4.357c0-1.8,1.164-3.9,2.289-5.937a25.929,25.929,0,0,0,1.407-2.782.708.708,0,0,1,.661-.452h0a.711.711,0,0,1,.662.451,25.4,25.4,0,0,0,1.375,2.713c1.14,2.065,2.32,4.2,2.32,6.007A4.361,4.361,0,0,1,1643.59,1875.978Zm0-11.136c-.253.492-.536,1-.827,1.529-.989,1.791-2.111,3.82-2.111,5.25a2.936,2.936,0,0,0,5.873,0c0-1.44-1.139-3.5-2.144-5.319C1644.106,1865.8,1643.835,1865.31,1643.592,1864.842Z" transform="translate(-1146.492 1725.386)" fill="#0e2571"/>
    <path id="Trazado_32840" data-name="Trazado 32840" d="M1607.31,1851.122h-.04a.71.71,0,0,1-.67-.749l.112-2a5.4,5.4,0,0,1,4.147-4.973l.023-.005,3.352-.692a.71.71,0,0,1,.287,1.391l-3.34.69a3.985,3.985,0,0,0-3.05,3.669l-.112,2A.711.711,0,0,1,1607.31,1851.122Z" transform="translate(-1146.492 1725.386)" fill="#0e2571"/>
    <path id="Trazado_32841" data-name="Trazado 32841" d="M1607.326,1863.88h-.025a.711.711,0,0,1-.685-.735l.284-7.994a.71.71,0,0,1,1.42.051l-.284,7.994A.711.711,0,0,1,1607.326,1863.88Z" transform="translate(-1146.492 1725.386)" fill="#0e2571"/>
  </g>
</svg>
