<svg xmlns="http://www.w3.org/2000/svg" width="45.831" height="37.553" viewBox="0 0 45.831 37.553">
  <g id="Grupo_11736" data-name="Grupo 11736" transform="translate(-443.492 -4649.798)">
    <path id="Trazado_32787" data-name="Trazado 32787" d="M1612.9,2162.965c-11.109,0-22.915-2.434-22.915-6.945,0-1.932,2.195-3.625,6.347-4.9a.711.711,0,0,1,.416,1.359c-4.957,1.516-5.343,3.09-5.343,3.536,0,1.507,3.092,2.912,5.986,3.724a67.716,67.716,0,0,0,31.019,0c2.893-.812,5.985-2.217,5.985-3.724s-3.092-2.912-5.985-3.725a.71.71,0,1,1,.384-1.367c4.594,1.289,7.022,3.05,7.022,5.092C1635.815,2160.531,1624.008,2162.965,1612.9,2162.965Z" transform="translate(-1146.492 2524.386)" fill="#0e2571"/>
    <path id="Trazado_32788" data-name="Trazado 32788" d="M1600.523,2152.515a.71.71,0,0,1-.71-.71,6.294,6.294,0,0,1,1.044-3.6,5.318,5.318,0,0,0,0-5.768,6.73,6.73,0,0,1,0-7.2,4.9,4.9,0,0,0,.85-2.884.711.711,0,1,1,1.421,0,6.3,6.3,0,0,1-1.044,3.6,5.313,5.313,0,0,0,0,5.768,6.732,6.732,0,0,1,0,7.2,4.895,4.895,0,0,0-.851,2.884A.71.71,0,0,1,1600.523,2152.515Z" transform="translate(-1146.492 2524.386)" fill="#0e2571"/>
    <path id="Trazado_32789" data-name="Trazado 32789" d="M1622.883,2152.515a.71.71,0,0,1-.711-.71,6.3,6.3,0,0,1,1.044-3.6,5.317,5.317,0,0,0,0-5.768,6.731,6.731,0,0,1,0-7.2,4.895,4.895,0,0,0,.85-2.884.711.711,0,1,1,1.421,0,6.3,6.3,0,0,1-1.044,3.6,5.318,5.318,0,0,0,0,5.768,6.732,6.732,0,0,1,0,7.2,4.9,4.9,0,0,0-.85,2.884A.71.71,0,0,1,1622.883,2152.515Z" transform="translate(-1146.492 2524.386)" fill="#0e2571"/>
    <path id="Trazado_32790" data-name="Trazado 32790" d="M1611.7,2157.974a.71.71,0,0,1-.71-.71,5.926,5.926,0,0,1,1.05-3.483,4.886,4.886,0,0,0,0-5.49,6.3,6.3,0,0,1,0-6.967,4.886,4.886,0,0,0,0-5.49,6.3,6.3,0,0,1,0-6.967,4.536,4.536,0,0,0,.844-2.745.71.71,0,0,1,1.42,0,5.925,5.925,0,0,1-1.05,3.483,4.887,4.887,0,0,0,0,5.491,6.3,6.3,0,0,1,0,6.967,4.886,4.886,0,0,0,0,5.49,6.3,6.3,0,0,1,0,6.966,4.536,4.536,0,0,0-.844,2.745A.71.71,0,0,1,1611.7,2157.974Z" transform="translate(-1146.492 2524.386)" fill="#0e2571"/>
  </g>
</svg>
