<svg xmlns="http://www.w3.org/2000/svg" width="48.502" height="48.689" viewBox="0 0 48.502 48.689">
  <g id="Grupo_11733" data-name="Grupo 11733" transform="translate(-481 -2339)">
    <path id="Trazado_35684" data-name="Trazado 35684" d="M17.473,30.419H8.709a.9.9,0,0,1-.9-.9V16.98a.9.9,0,0,1,.9-.9h8.7a.9.9,0,0,1,.672,1.489,8.5,8.5,0,0,0,.06,11.35.9.9,0,0,1-.665,1.5ZM9.6,28.627h6.08a10.277,10.277,0,0,1-.046-10.751H9.6Z" transform="translate(473.188 2333.689)" fill="#fff"/>
    <path id="Trazado_35685" data-name="Trazado 35685" d="M50.088,32.542a.9.9,0,0,1-.9-.9,9.816,9.816,0,0,0-9.805-9.805H37.5a.9.9,0,1,1,0-1.792h1.888a11.61,11.61,0,0,1,11.6,11.6A.9.9,0,0,1,50.088,32.542Z" transform="translate(473.188 2333.689)" fill="#fff"/>
    <path id="Trazado_35686" data-name="Trazado 35686" d="M24.478,33.548A10.333,10.333,0,1,1,34.811,23.215,10.345,10.345,0,0,1,24.478,33.548Zm0-18.874a8.541,8.541,0,1,0,8.542,8.541A8.551,8.551,0,0,0,24.478,14.674Z" transform="translate(473.188 2333.689)" fill="#fff"/>
    <path id="Trazado_35687" data-name="Trazado 35687" d="M24.478,29.248a6.033,6.033,0,1,1,6.033-6.033A6.039,6.039,0,0,1,24.478,29.248Zm0-10.274a4.241,4.241,0,1,0,4.241,4.241A4.246,4.246,0,0,0,24.478,18.974Z" transform="translate(473.188 2333.689)" fill="#fff"/>
    <path id="Trazado_35688" data-name="Trazado 35688" d="M26.942,15.01a.892.892,0,0,1-.234-.032,8.361,8.361,0,0,0-4.461,0,.895.895,0,0,1-1.129-.864V9.656a.9.9,0,0,1,.9-.9h4.928a.9.9,0,0,1,.9.9v4.458a.9.9,0,0,1-.9.9Zm-2.464-2.128a10.07,10.07,0,0,1,1.568.125V10.552H22.91v2.455A10.06,10.06,0,0,1,24.478,12.882Z" transform="translate(473.188 2333.689)" fill="#fff"/>
    <path id="Trazado_35689" data-name="Trazado 35689" d="M29.876,10.552H19.08a2.621,2.621,0,1,1,0-5.241h10.8a2.621,2.621,0,1,1,0,5.241ZM19.08,7.1a.829.829,0,1,0,0,1.657h10.8a.829.829,0,1,0,0-1.657Z" transform="translate(473.188 2333.689)" fill="#fff"/>
    <path id="Trazado_35690" data-name="Trazado 35690" d="M44.344,54a4.676,4.676,0,0,1-.652-.046A4.01,4.01,0,0,1,40.609,51.6a4.336,4.336,0,0,1,.317-4.178L43.6,43.355a.9.9,0,0,1,1.5,0l2.668,4.069A4.333,4.333,0,0,1,48.08,51.6,4.011,4.011,0,0,1,45,53.954,4.679,4.679,0,0,1,44.344,54Zm0-8.52-1.919,2.927a2.551,2.551,0,0,0-.183,2.458,2.2,2.2,0,0,0,1.7,1.315,2.875,2.875,0,0,0,.8,0,2.2,2.2,0,0,0,1.7-1.316,2.544,2.544,0,0,0-.183-2.457Z" transform="translate(473.188 2333.689)" fill="#fff"/>
    <path id="Trazado_35691" data-name="Trazado 35691" d="M8.709,52.363a.9.9,0,0,1-.9-.9V11.388a.9.9,0,1,1,1.792,0V51.467A.9.9,0,0,1,8.709,52.363Z" transform="translate(473.188 2333.689)" fill="#fff"/>
    <path id="Trazado_35692" data-name="Trazado 35692" d="M53.447,41.074H42.457a2.867,2.867,0,0,1,0-5.734h10.99a2.867,2.867,0,1,1,0,5.734Zm-10.99-3.942a1.075,1.075,0,1,0,0,2.15h10.99a1.075,1.075,0,1,0,0-2.15Z" transform="translate(473.188 2333.689)" fill="#fff"/>
    <path id="Trazado_35693" data-name="Trazado 35693" d="M53.447,41.074H42.457a2.867,2.867,0,0,1,0-5.734h10.99a2.867,2.867,0,1,1,0,5.734Zm-10.99-3.942a1.075,1.075,0,1,0,0,2.15h10.99a1.075,1.075,0,1,0,0-2.15Z" transform="translate(473.188 2333.689)" fill="#fff"/>
    <path id="Trazado_35694" data-name="Trazado 35694" d="M54.224,37.292a.9.9,0,0,1-.353-.072,1.074,1.074,0,0,0-.424-.088H42.457a1.035,1.035,0,0,0-.356.069.9.9,0,0,1-1.2-.844V34.074a3.66,3.66,0,0,0-3.655-3.655H31.483a.9.9,0,0,1-.666-1.5,8.5,8.5,0,0,0,.061-11.35.9.9,0,0,1,.672-1.489h8.506A15.081,15.081,0,0,1,55.12,31.148V36.4a.9.9,0,0,1-.9.9ZM42.7,35.34H53.328V31.148A13.287,13.287,0,0,0,40.056,17.876h-6.74a10.28,10.28,0,0,1-.045,10.751h3.978A5.454,5.454,0,0,1,42.7,34.074Z" transform="translate(473.188 2333.689)" fill="#fff"/>
  </g>
</svg>
